<?xml version="1.0" encoding="utf-8"?>
<svg width="120" height="120" viewBox="7 110 265 265" xmlns="http://www.w3.org/2000/svg" fill="#000000">
    <polygon fill="#383838" points="0,341 512,341 512,512 0,512"/>
    <polygon fill="#B5E61D" points="0,0 0,171 91,91 162,135 258,46 421,167 454,130 512,177 512,0"/>
    <polygon fill="#859C40" points="0,341 0,171 91,91 162,135 258,46 421,167 454,130 512,177 512,341"/>
    <g><path d="M 203.974,174.245 C 222.476,175.362 240.093,180.042 256.826,188.284C 261.212,191.965 260.663,194.993 255.174,197.368C 237.325,186.789 218.056,182.108 197.368,183.329C 195.716,184.981 194.065,186.632 192.413,188.284C 206.744,195.204 211.973,206.491 208.103,222.142C 194.824,250.287 173.627,269.831 144.516,280.774C 141.213,281.876 137.91,281.876 134.606,280.774C 125.565,273.975 118.683,265.441 113.961,255.174C 106.494,248.265 98.511,241.933 90.013,236.181C 80.833,224.405 81.934,213.393 93.316,203.148C 97.94,200.696 102.345,197.944 106.529,194.89C 96.976,193.815 88.168,190.786 80.103,185.806C 70.706,189.433 61.898,194.112 53.677,199.845C 42.667,209.755 31.656,219.665 20.645,229.574C 18.771,230.811 17.119,230.537 15.69,228.748C 22.905,213 33.916,200.613 48.723,191.587C 58.829,186.533 69.289,182.404 80.103,179.2C 81.403,180.425 82.504,181.801 83.406,183.329C 95.153,184.518 106.714,186.444 118.09,189.11C 123.982,187.027 130.038,185.65 136.258,184.981C 151.123,184.431 165.987,183.879 180.852,183.329C 188.963,180.624 196.671,177.596 203.974,174.245 Z"/></g>
    <g><path d="M 243.613,200.671 C 251.341,200.397 259.047,200.673 266.735,201.497C 279.204,204.552 288.837,211.433 295.639,222.142C 303.046,243.899 295.34,255.46 272.516,256.826C 255.283,255.301 239.593,249.521 225.445,239.484C 217.664,232.646 215.187,224.114 218.013,213.884C 224.895,205.991 233.429,201.586 243.613,200.671 Z"/></g>
    <g fill="#FFFF00">
        <path d="M 103.226,205.626 C 108.856,205.211 114.361,205.763 119.742,207.277C 125.846,226.278 119.24,234.81 99.923,232.877C 93.043,230.428 90.565,225.749 92.49,218.839C 94.645,213.122 98.224,208.718 103.226,205.626 Z"/>
        <path d="M 167.639,208.929 C 184.967,208.321 191.298,216.029 186.632,232.052C 174.709,244.221 162.597,244.771 150.297,233.703C 149.607,220.73 155.388,212.472 167.639,208.929 Z"/>
    </g>
    <g><path d="M 104.877,208.929 C 107.347,208.789 108.999,209.889 109.832,212.232C 108.134,215.306 105.656,217.509 102.4,218.839C 102.341,222.87 100.964,226.174 98.271,228.748C 97.303,228.403 96.477,227.852 95.794,227.097C 94.692,223.794 94.692,220.49 95.794,217.187C 98.65,214.046 101.678,211.292 104.877,208.929 Z"/></g>
    <g><path d="M 167.639,213.884 C 171.86,213.276 175.163,214.654 177.548,218.013C 172.861,221.752 168.456,225.881 164.335,230.4C 166.73,232.63 167.832,235.381 167.639,238.658C 160.197,239.471 156.343,236.167 156.077,228.748C 157.203,221.485 161.057,216.53 167.639,213.884 Z"/></g>
    <g><path d="M 215.535,241.961 C 239.86,245.905 245.367,258.292 232.052,279.123C 225.974,280.249 221.845,277.772 219.665,271.69C 218.941,266.94 217.289,262.535 214.71,258.477C 213.476,252.822 213.752,247.317 215.535,241.961 Z"/></g>
    <g><path d="M 197.368,243.613 C 203.718,244.188 207.021,247.767 207.277,254.348C 206.433,261.817 203.956,268.699 199.845,274.994C 191.899,282.452 187.77,280.525 187.458,269.213C 189.897,260.228 193.201,251.694 197.368,243.613 Z"/></g>
    <g><path d="M 250.219,279.948 C 248.137,273.55 247.035,266.944 246.916,260.129C 254.325,259.293 260.656,261.497 265.91,266.735C 266.735,277.182 267.01,287.642 266.735,298.116C 263.166,297.578 260.139,295.926 257.652,293.161C 256.231,287.987 253.754,283.582 250.219,279.948 Z"/></g>
    <g><path d="M 250.219,279.948 C 251.351,287.749 254.104,294.907 258.477,301.419C 250.071,304.868 244.84,302.115 242.787,293.161C 241.42,286.611 240.594,280.005 240.31,273.342C 242.511,273.342 244.715,273.342 246.916,273.342C 246.469,276.447 247.57,278.649 250.219,279.948 Z"/></g>
    <g><path d="M 174.245,274.994 C 182.578,273.994 186.432,277.298 185.806,284.903C 172.219,288.851 159.006,293.805 146.168,299.768C 143.839,295.723 144.39,292.144 147.819,289.032C 156.964,284.466 165.772,279.787 174.245,274.994 Z"/></g>
    <g><path d="M 225.445,283.252 C 227.647,283.252 229.85,283.252 232.052,283.252C 232.326,291.513 228.473,296.742 220.49,298.942C 211.198,301.765 201.839,302.039 192.413,299.768C 185.615,300.716 179.008,302.367 172.594,304.723C 170.854,303.173 169.753,301.246 169.29,298.942C 176.245,292.573 184.503,288.718 194.065,287.381C 204.8,286.239 215.261,284.864 225.445,283.252 Z"/></g>
    <g><path d="M 119.032 341.18 C 114.429 342.794 110.184 341.57 104.877 341.058 C 111.174 325.1 120.533 311.061 132.955 298.942 C 135.091 298.133 137.293 297.857 139.561 298.116 C 139.82 300.384 139.545 302.587 138.735 304.723 C 133.405 315.009 126.248 323.817 117.265 331.148 C 116.252 334.443 116.368 338.971 119.032 341.18 Z"/></g>
    <g><path d="M 162.684 341.058 C 155.744 341.582 149.02 342.686 142.747 341.062 C 148.593 329.939 155.042 317.272 161.858 306.374 C 163.528 304.992 165.455 304.442 167.639 304.723 C 165.54 314.715 162.237 324.35 157.729 333.626 C 159.074 336.339 160.726 338.817 162.684 341.058 Z"/></g>
    <g><path d="M 263.432,304.723 C 271.756,305.567 280.014,306.942 288.206,308.852C 293.402,309.033 295.054,311.235 293.161,315.458C 283.409,316.381 274.05,314.73 265.084,310.503C 263.701,308.833 263.151,306.906 263.432,304.723 Z"/></g>
</svg>
