<?xml version="1.0" encoding="utf-8"?>
<svg xmlns="http://www.w3.org/2000/svg"
     viewBox="0 0 41 41" role="img"
     aria-label="GitVerse"
     fill="white"
     width="512">
    <g><path fill-rule="evenodd" clip-rule="evenodd" d="M37.0689 21.7098C37.0689 31.1365 29.427 38.7785 20.0003 38.7785C10.5736 38.7785 2.93167 31.1365 2.93167 21.7098C2.93167 12.283 10.5736 4.64114 20.0003 4.64114C23.8833 4.64114 27.4635 5.93777 30.3316 8.12166L30.9361 7.37965C30.9251 7.37127
    30.914 7.36289 30.903 7.35453C27.8757 5.05163 24.0977 3.68457 20.0003 3.68457C10.0453 3.68457 1.9751 11.7547 1.9751 21.7098C1.9751 31.6649 10.0453 39.7351 20.0003 39.7351C29.9554 39.7351 38.0255 31.6649 38.0255 21.7098C38.0255 17.4292 36.5335 13.4971 34.041 10.4053C33.8983 10.7944
    33.753 11.1926 33.6546 11.4661C35.7986 14.3193 37.0689 17.8662 37.0689 21.7098Z"/></g>
    <mask id="mask0_294_642" style="mask-type:alpha" maskUnits="userSpaceOnUse" x="3" y="0" width="35" height="38">
        <path fill-rule="evenodd" clip-rule="evenodd" d="M37.2789 0.683594H5.07014L3.91357 21.7216V22.076H3.9174C4.10585 30.8063 11.242 37.8259 20.0177 37.8259C28.7935 37.8259 35.9297 30.8063 36.1181 22.076H36.1222L37.2789 0.683594Z"/>
    </mask>
    <g mask="url(#mask0_294_642)">
        <path fill-rule="evenodd" clip-rule="evenodd" d="M14.6499 29.3186C15.9622 29.5829 17.7162 29.4228 19.6576 29.2456C22.8309 28.9559 26.5047 28.6207 29.5684 30.0187C27.7859 29.7365 25.376 29.691 22.441 30.3714C19.3997 31.0766 17.8797 32.3426 16.2775 33.6768C14.3898 35.2489 12.388
        36.916 7.64953 37.8728C-1.11069 39.6412 7.65049 37.8728 7.65049 37.8728C7.25754 38.2095 19.204 41.8569 25.895 40.6481C34.2346 39.5578 40.511 35.2117 40.511 35.2117L38.3312 22.9017C38.3312 22.9017 36.3588 27.3474 34.6871 30.0187C35.4326 27.876 35.956 24.638 35.8024 22.2458C35.6965
        20.599 35.5905 18.9466 35.7768 17.3621C36.5208 11.0344 37.0881 2.61586 34.6204 1.51255C32.2354 0.446194 29.3881 4.82146 27.219 8.15483C26.7565 8.86565 26.3246 9.52909 25.9349 10.0823H23.5845C22.2722 10.0823 21.0026 10.5482 20.0017 11.3969L15.3479 15.3432C15.0901 15.5618 14.7643
        15.6839 14.4263 15.6885L5.70327 15.8071C6.72596 16.3672 7.8785 16.647 9.04417 16.6182L9.17825 16.6149C9.73094 16.6013 10.1453 17.1169 10.013 17.6537L9.83841 18.3618C9.69586 18.94 9.37206 19.4575 8.91434 19.8386L7.17786 21.2842C7.15307 21.309 7.14068 21.3337 7.14068 21.3709L7.16488
        22.1772C7.18073 22.7056 7.45822 23.1903 7.9223 23.4434C9.16047 24.1184 11.812 25.4131 14.6499 25.8566C17.9427 26.3711 19.6727 25.6926 20.5134 25.3627C20.6701 25.3012 20.7959 25.2519 20.8952 25.2247C20.9448 25.2122 21.0191 25.2989 21.0191 25.2989C18.5879 26.8352 17.5574 27.3324
        14.6499 27.2453C11.7424 27.1584 7.17786 24.8564 7.17786 24.8564C7.06633 24.8069 6.9672 24.9678 7.07873 25.0423C7.07873 25.0423 10.3071 28.4435 14.6499 29.3186ZM19.5569 16.0532C19.5817 15.3716 19.9534 14.7892 20.4987 14.4547C21.6015 14.6157 22.6052 14.9379 23.4851 15.6814C23.5221
        15.8549 23.547 16.0408 23.5346 16.239C23.4851 17.3047 22.6052 18.1349 21.5519 18.1349H21.4652C20.3624 18.0854 19.5073 17.156 19.5569 16.0532ZM19.8241 9.0278C18.4606 9.0278 17.1347 9.47406 16.0487 10.2984L13.9679 11.8778C13.906 11.9274 13.8069 11.8778 13.8069 11.8035C13.8612 11.0049
        13.8967 10.1748 13.9322 9.34786C14.0908 5.6454 14.2467 2.00707 16.068 1.55182C17.8028 1.11818 19.9349 5.96772 20.9758 9.02841L20.1884 9.0278H19.8241ZM19.6359 10.4469L14.5107 14.5494C14.3632 14.6675 14.1799 14.7318 13.9909 14.7318H11.9895L16.9128 10.9175C17.706 10.303 18.6829 9.97323
        19.6862 9.98125C19.7854 9.98125 20.0017 10.1584 19.6359 10.4469ZM5.11903 20.7462V19.7594L5.99876 20.9116V23.3652C5.42796 22.6114 5.11903 21.6916 5.11903 20.7462ZM5.11897 19.7592L5.11903 19.7594C5.11899 19.6605 5.08183 19.6725 5.11897 19.7592ZM32.088 13.7095C31.2144 12.6009 30.1964
        11.6142 29.0612 10.7755C29.0612 10.7755 31.7638 5.73344 33.2257 6.19168C34.6873 6.64992 32.5683 14.3192 32.5683 14.3192L32.088 13.7095Z"/>
    </g>
</svg>
