<?xml version="1.0" encoding="utf-8"?>
<svg xmlns="http://www.w3.org/2000/svg"
     viewBox="0 0 41 41" role="img"
     aria-label="GitVerse"
     fill="white"
     width="512">
    <path fill-rule="evenodd" clip-rule="evenodd" d="M37.069 21.71c0 9.427-7.642 17.069-17.069 17.069-9.426 0-17.068-7.643-17.068-17.07 0-9.426 7.642-17.068 17.068-17.068 3.883 0 7.463 1.297 10.332 3.48l.604-.741c-.01-.009-.022-.017-.033-.025A17.945 17.945 0 0 0 20 3.685c-9.955 0-18.025 8.07-18.025
      18.025 0 9.955 8.07 18.025 18.025 18.025 9.955 0 18.026-8.07 18.026-18.025a17.95 17.95 0 0 0-3.985-11.305c-.143.39-.288.788-.386 1.061a16.993 16.993 0 0 1 3.414 10.244z"/>
    <path fill-rule="evenodd" clip-rule="evenodd" d="M14.65 29.319c1.312.264 3.066.104 5.008-.073 3.173-.29 6.847-.625 9.91.773-1.782-.282-4.192-.328-7.127.352-3.041.706-4.469 2.091-6.163 3.306-3.415 2.449-4.474 1.881-3.008 2.73 2.308 1.336 4.338 1.355 4.985 1.417 2.635.123 3.068.112 5.099-.304
      2.371-.626 3.457-.923 5.231-2.19 3.548-2.535 3.746-3.356 4.823-4.651 1.303-2.337.69-1.153 1.247-2.49.762-2.031 1.052-2.617 1.147-5.943.047-1.649-.211-3.299-.025-4.884.744-6.328 1.311-14.746-1.157-15.849-2.385-1.067-5.232 3.308-7.401 6.642a64.345 64.345 0 0 1-1.284 1.927h-2.35a5.538 5.538 0 0
      0-3.583 1.315l-4.654 3.946a1.458 1.458 0 0 1-.922.346l-8.723.118c1.023.56 2.176.84 3.341.811l.134-.003a.839.839 0 0 1 .835 1.039l-.175.708a2.787 2.787 0 0 1-.924 1.477l-1.736 1.445a.113.113 0 0 0-.037.087l.024.806c.016.529.293 1.013.757 1.266 1.238.675 3.89 1.97 6.728 2.414 3.293.514 5.023-.164
      5.863-.494.157-.062.283-.111.382-.138.05-.013.124.074.124.074-2.431 1.536-3.462 2.033-6.369 1.946-2.908-.087-7.472-2.389-7.472-2.389-.112-.049-.211.112-.099.186 0 0 3.228 3.402 7.571 4.277zm4.907-13.266a1.952 1.952 0 0 1 .942-1.598c1.103.161 2.106.483 2.986 1.226.037.174.062.36.05.558a1.989
      1.989 0 0 1-1.983 1.896h-.087a1.995 1.995 0 0 1-1.908-2.082zm.267-7.025a6.246 6.246 0 0 0-3.775 1.27l-2.081 1.58c-.062.049-.161 0-.161-.074.054-.799.09-1.629.125-2.456.159-3.703.315-7.341 2.136-7.796 1.735-.434 3.867 4.416 4.908 7.476H19.824zm-.188 1.419-5.125 4.102a.828.828 0 0 1-.52.183H11.99l4.923-3.814a4.467
      4.467 0 0 1 2.773-.937c.099 0 .316.177-.05.466zM5.119 20.746v-.987l.88 1.153v2.453a4.337 4.337 0 0 1-.88-2.619zm0-.987c0-.098-.037-.086 0 0zm26.969-6.049a15.815 15.815 0 0 0-3.027-2.934s2.703-5.043 4.165-4.584c1.461.458-.658 8.127-.658 8.127l-.48-.609z"/>
</svg>
