<?xml version="1.0" encoding="utf-8"?>
<svg width="512" height="512" viewBox="0 0 512 512" xmlns="http://www.w3.org/2000/svg">
    <polygon fill="#383838" points="0,341 512,341 512,512 0,512"/>
    <polygon fill="#B5E61D" points="0,0 0,171 91,91 162,135 258,46 421,167 454,130 512,177 512,0"/>
    <polygon fill="#859C40" points="0,341 0,171 91,91 162,135 258,46 421,167 454,130 512,177 512,341"/>
    <g><path fill="#000000" d="M 203.974,174.245 C 222.476,175.362 240.093,180.042 256.826,188.284C 261.212,191.965 260.663,194.993 255.174,197.368C 237.325,186.789 218.056,182.108 197.368,183.329C 195.716,184.981 194.065,186.632 192.413,188.284C 206.744,195.204 211.973,206.491 208.103,222.142C 194.824,250.287 173.627,269.831 144.516,280.774C 141.213,281.876 137.91,281.876 134.606,280.774C 125.565,273.975 118.683,265.441 113.961,255.174C 106.494,248.265 98.511,241.933 90.013,236.181C 80.833,224.405 81.934,213.393 93.316,203.148C 97.94,200.696 102.345,197.944 106.529,194.89C 96.976,193.815 88.168,190.786 80.103,185.806C 70.706,189.433 61.898,194.112 53.677,199.845C 42.667,209.755 31.656,219.665 20.645,229.574C 18.771,230.811 17.119,230.537 15.69,228.748C 22.905,213 33.916,200.613 48.723,191.587C 58.829,186.533 69.289,182.404 80.103,179.2C 81.403,180.425 82.504,181.801 83.406,183.329C 95.153,184.518 106.714,186.444 118.09,189.11C 123.982,187.027 130.038,185.65 136.258,184.981C 151.123,184.431 165.987,183.879 180.852,183.329C 188.963,180.624 196.671,177.596 203.974,174.245 Z"/></g>
    <g><path fill="#000000" d="M 243.613,200.671 C 251.341,200.397 259.047,200.673 266.735,201.497C 279.204,204.552 288.837,211.433 295.639,222.142C 303.046,243.899 295.34,255.46 272.516,256.826C 255.283,255.301 239.593,249.521 225.445,239.484C 217.664,232.646 215.187,224.114 218.013,213.884C 224.895,205.991 233.429,201.586 243.613,200.671 Z"/></g>
    <g><path fill="#FFFF00" d="M 103.226,205.626 C 108.856,205.211 114.361,205.763 119.742,207.277C 125.846,226.278 119.24,234.81 99.923,232.877C 93.043,230.428 90.565,225.749 92.49,218.839C 94.645,213.122 98.224,208.718 103.226,205.626 Z"/></g>
    <g><path fill="#000000" d="M 104.877,208.929 C 107.347,208.789 108.999,209.889 109.832,212.232C 108.134,215.306 105.656,217.509 102.4,218.839C 102.341,222.87 100.964,226.174 98.271,228.748C 97.303,228.403 96.477,227.852 95.794,227.097C 94.692,223.794 94.692,220.49 95.794,217.187C 98.65,214.046 101.678,211.292 104.877,208.929 Z"/></g>
    <g><path fill="#FFFF00" d="M 167.639,208.929 C 184.967,208.321 191.298,216.029 186.632,232.052C 174.709,244.221 162.597,244.771 150.297,233.703C 149.607,220.73 155.388,212.472 167.639,208.929 Z"/></g>
    <g><path fill="#000000" d="M 167.639,213.884 C 171.86,213.276 175.163,214.654 177.548,218.013C 172.861,221.752 168.456,225.881 164.335,230.4C 166.73,232.63 167.832,235.381 167.639,238.658C 160.197,239.471 156.343,236.167 156.077,228.748C 157.203,221.485 161.057,216.53 167.639,213.884 Z"/></g>
    <g><path fill="#000000" d="M 322.89,213.884 C 343.364,211.392 349.97,219.65 342.71,238.658C 341.058,240.034 339.406,241.411 337.755,242.787C 346.404,241.643 350.258,236.414 349.316,227.097C 349.167,224.243 348.617,221.491 347.665,218.839C 363.938,217.235 369.719,224.391 365.006,240.31C 362.934,241.484 361.008,242.86 359.226,244.439C 361.972,244.876 364.45,244.051 366.658,241.961C 370.427,237.381 371.253,232.427 369.135,227.097C 380.081,226.809 384.21,232.314 381.523,243.613C 370.787,250.576 358.95,253.328 346.013,251.871C 332.681,252.654 320.02,250.176 308.026,244.439C 298.461,233.774 299.561,224.415 311.329,216.361C 315.967,214.842 319.546,216.218 322.065,220.49C 323.587,227.429 322.761,234.035 319.587,240.31C 320.137,240.86 320.689,241.411 321.239,241.961C 328.896,232.942 329.447,223.582 322.89,213.884 Z"/></g>
    <g><path fill="#000000" d="M 215.535,241.961 C 239.86,245.905 245.367,258.292 232.052,279.123C 225.974,280.249 221.845,277.772 219.665,271.69C 218.941,266.94 217.289,262.535 214.71,258.477C 213.476,252.822 213.752,247.317 215.535,241.961 Z"/></g>
    <g><path fill="#000000" d="M 197.368,243.613 C 203.718,244.188 207.021,247.767 207.277,254.348C 206.433,261.817 203.956,268.699 199.845,274.994C 191.899,282.452 187.77,280.525 187.458,269.213C 189.897,260.228 193.201,251.694 197.368,243.613 Z"/></g>
    <g><path fill="#000000" d="M 293.161,251.871 C 297.819,251.455 302.222,252.281 306.374,254.348C 312.602,262.235 319.485,269.667 327.019,276.645C 327.817,278.211 328.091,279.863 327.845,281.6C 312.507,281.354 298.192,277.225 284.903,269.213C 281.194,267.137 278.992,264.109 278.297,260.129C 284.48,259.422 289.435,256.669 293.161,251.871 Z"/></g>
    <g><path fill="#000000" d="M 312.981,255.174 C 313.369,254.188 314.195,253.638 315.458,253.523C 318.984,254.558 322.563,255.384 326.194,256C 331.705,258.202 336.66,261.229 341.058,265.084C 336.988,267.966 332.585,269.343 327.845,269.213C 323.062,264.149 318.107,259.47 312.981,255.174 Z"/></g>
    <g><path fill="#000000" d="M 250.219,279.948 C 248.137,273.55 247.035,266.944 246.916,260.129C 254.325,259.293 260.656,261.497 265.91,266.735C 266.735,277.182 267.01,287.642 266.735,298.116C 263.166,297.578 260.139,295.926 257.652,293.161C 256.231,287.987 253.754,283.582 250.219,279.948 Z"/></g>
    <g><path fill="#000000" d="M 364.181,261.781 C 371.948,261.677 379.656,262.228 387.303,263.432C 387.202,267.644 385.001,270.121 380.697,270.865C 364.389,275.492 347.873,279.071 331.148,281.6C 330.795,278.885 331.347,276.407 332.8,274.168C 342.873,268.527 353.333,264.398 364.181,261.781 Z"/></g>
    <g><path fill="#000000" d="M 393.91,266.735 C 398.689,269.018 402.818,272.321 406.297,276.645C 413.779,290.517 421.211,304.28 428.594,317.935C 424.75,318.353 421.447,317.252 418.684,314.632C 408.328,301.251 398.969,287.212 390.606,272.516C 391.396,270.364 392.498,268.438 393.91,266.735 Z"/></g>
    <g><path fill="#000000" d="M 250.219,279.948 C 251.351,287.749 254.104,294.907 258.477,301.419C 250.071,304.868 244.84,302.115 242.787,293.161C 241.42,286.611 240.594,280.005 240.31,273.342C 242.511,273.342 244.715,273.342 246.916,273.342C 246.469,276.447 247.57,278.649 250.219,279.948 Z"/></g>
    <g><path fill="#000000" d="M 174.245,274.994 C 182.578,273.994 186.432,277.298 185.806,284.903C 172.219,288.851 159.006,293.805 146.168,299.768C 143.839,295.723 144.39,292.144 147.819,289.032C 156.964,284.466 165.772,279.787 174.245,274.994 Z"/></g>
    <g><path fill="#000000" d="M 362.529,278.297 C 376.664,276.444 388.225,280.849 397.213,291.51C 396.387,292.06 395.561,292.611 394.735,293.161C 384.879,289.437 374.693,286.409 364.181,284.077C 362.798,282.408 362.248,280.48 362.529,278.297 Z"/></g>
    <g><path fill="#000000" d="M 225.445,283.252 C 227.647,283.252 229.85,283.252 232.052,283.252C 232.326,291.513 228.473,296.742 220.49,298.942C 211.198,301.765 201.839,302.039 192.413,299.768C 185.615,300.716 179.008,302.367 172.594,304.723C 170.854,303.173 169.753,301.246 169.29,298.942C 176.245,292.573 184.503,288.718 194.065,287.381C 204.8,286.239 215.261,284.864 225.445,283.252 Z"/></g>
    <g><path fill="#000000" d="M 306.374,288.206 C 313.004,287.932 319.61,288.208 326.194,289.032C 330.57,292.471 330.019,295.224 324.542,297.29C 307.013,302.514 289.397,302.79 271.69,298.116C 274.567,294.289 278.422,291.812 283.252,290.684C 291.264,290.396 298.972,289.571 306.374,288.206 Z"/></g>
    <g><path fill="#000000" d="M 420.335,293.161 C 421.576,291.389 423.227,291.113 425.29,292.335C 435.672,296.836 444.756,303.167 452.542,311.329C 453.368,314.908 451.992,316.284 448.413,315.458C 437.702,309.393 428.343,301.961 420.335,293.161 Z"/></g>
    <g><path fill="#000000" d="M 377.394 341.058 C 368.813 341.588 360.226 342.618 352.29 340.987 C 355.177 338.246 356.332 333.362 355.097 329.497 C 347.995 320.742 340.288 312.484 331.974 304.723 C 331.158 302.024 330.884 299.271 331.148 296.465 C 335.157 296.503 339.01 297.328 342.71 298.942 C 352.393 308.127 359.825 318.862 365.006 331.148 C 368.498 335.477 372.627 338.78 377.394 341.058 Z"/></g>
    <g><path fill="#000000" d="M 119.032 341.18 C 114.429 342.794 110.184 341.57 104.877 341.058 C 111.174 325.1 120.533 311.061 132.955 298.942 C 135.091 298.133 137.293 297.857 139.561 298.116 C 139.82 300.384 139.545 302.587 138.735 304.723 C 133.405 315.009 126.248 323.817 117.265 331.148 C 116.252 334.443 116.368 338.971 119.032 341.18 Z"/></g>
    <g><path fill="#000000" d="M 162.684 341.058 C 155.744 341.582 149.02 342.686 142.747 341.062 C 148.593 329.939 155.042 317.272 161.858 306.374 C 163.528 304.992 165.455 304.442 167.639 304.723 C 165.54 314.715 162.237 324.35 157.729 333.626 C 159.074 336.339 160.726 338.817 162.684 341.058 Z"/></g>
    <g><path fill="#000000" d="M 263.432,304.723 C 271.756,305.567 280.014,306.942 288.206,308.852C 293.402,309.033 295.054,311.235 293.161,315.458C 283.409,316.381 274.05,314.73 265.084,310.503C 263.701,308.833 263.151,306.906 263.432,304.723 Z"/></g>
    <g><path fill="#000000" d="M 495.517 341.058 C 487.581 342.689 480.116 341.588 471.535 341.058 C 472.006 338.105 471.456 335.352 469.884 332.8 C 464.483 329.882 459.804 326.028 455.845 321.239 C 454.435 317.759 455.535 315.556 459.148 314.632 C 464.815 317.541 470.044 321.12 474.839 325.368 C 478.213 328.189 480.966 331.492 483.097 335.277 C 487.262 337.492 490.874 340.52 495.517 341.058 Z"/></g>
    <g><path fill="#000000" d="M 302.873 341.036 C 297.918 343.238 292.888 343.384 287.933 341.182 C 290.421 335.014 292.345 326.631 293.161 319.587 C 296.175 317.818 298.103 318.92 298.942 322.89 C 299.492 327.845 300.044 332.8 300.594 337.755 C 301.226 338.673 301.854 340.853 302.873 341.036 Z"/></g>
    <g><path fill="#000000" d="M 461.913 341.097 C 454.531 342.726 448.187 341.585 440.155 341.058 C 435.638 334.318 431.783 327.16 428.594 319.587 C 430.861 319.328 433.064 319.604 435.2 320.413 C 442.427 330.07 450.423 338.092 461.913 341.097 Z"/></g>
    <text x="23" y="440" font-size="65" font-family="Courier New" font-weight="600"
          fill="#FFFFFF">morontt.info</text>
</svg>
