<svg width="512" height="512" viewBox="0 0 512 512" xmlns="http://www.w3.org/2000/svg">
    <polygon fill="#383838" points="0,341 512,341 512,512 0,512"/>
    <polygon fill="#B5E61D" points="0,0 0,171 91,91 162,135 258,46 421,167 454,130 512,177 512,0"/>
    <polygon fill="#859C40" points="0,341 0,171 91,91 162,135 258,46 421,167 454,130 512,177 512,341"/>
    <g><path fill="#000000" d="M 123.5,105.5 C 134.702,106.176 145.369,109.01 155.5,114C 158.156,116.229 157.823,118.062 154.5,119.5C 143.693,113.095 132.026,110.261 119.5,111C 118.5,112 117.5,113 116.5,114C 125.177,118.19 128.343,125.024 126,134.5C 117.96,151.541 105.126,163.374 87.5,170C 85.5,170.667 83.5,170.667 81.5,170C 76.0256,165.883 71.8589,160.716 69,154.5C 64.4789,150.317 59.6455,146.483 54.5,143C 48.942,135.87 49.6087,129.203 56.5,123C 59.2997,121.515 61.9664,119.849 64.5,118C 58.7162,117.349 53.3828,115.515 48.5,112.5C 42.8105,114.696 37.4772,117.529 32.5,121C 25.8333,127 19.1667,133 12.5,139C 11.365,139.749 10.365,139.583 9.5,138.5C 13.8683,128.965 20.535,121.465 29.5,116C 35.6192,112.94 41.9525,110.44 48.5,108.5C 49.2868,109.242 49.9535,110.075 50.5,111C 57.6119,111.72 64.6119,112.886 71.5,114.5C 75.067,113.239 78.7337,112.405 82.5,112C 91.5,111.667 100.5,111.333 109.5,111C 114.411,109.362 119.078,107.529 123.5,105.5 Z"/></g>
    <g><path fill="#000000" d="M 147.5,121.5 C 152.179,121.334 156.845,121.501 161.5,122C 169.049,123.85 174.882,128.016 179,134.5C 183.485,147.673 178.819,154.673 165,155.5C 154.566,154.577 145.066,151.077 136.5,145C 131.789,140.86 130.289,135.694 132,129.5C 136.167,124.721 141.334,122.054 147.5,121.5 Z"/></g>
    <g><path fill="#FFFF00" d="M 62.5,124.5 C 65.909,124.249 69.2423,124.583 72.5,125.5C 76.196,137.004 72.196,142.17 60.5,141C 56.3345,139.517 54.8345,136.684 56,132.5C 57.3046,129.039 59.4713,126.372 62.5,124.5 Z"/></g>
    <g><path fill="#000000" d="M 63.5,126.5 C 64.9953,126.415 65.9953,127.081 66.5,128.5C 65.4717,130.361 63.9717,131.695 62,132.5C 61.964,134.941 61.1307,136.941 59.5,138.5C 58.914,138.291 58.414,137.957 58,137.5C 57.3333,135.5 57.3333,133.5 58,131.5C 59.7297,129.598 61.563,127.931 63.5,126.5 Z"/></g>
    <g><path fill="#FFFF00" d="M 101.5,126.5 C 111.992,126.132 115.825,130.799 113,140.5C 105.781,147.868 98.4473,148.201 91,141.5C 90.5825,133.645 94.0825,128.645 101.5,126.5 Z"/></g>
    <g><path fill="#000000" d="M 101.5,129.5 C 104.056,129.132 106.056,129.966 107.5,132C 104.662,134.264 101.995,136.764 99.5,139.5C 100.95,140.85 101.617,142.516 101.5,144.5C 96.9941,144.992 94.6608,142.992 94.5,138.5C 95.1818,134.102 97.5151,131.102 101.5,129.5 Z"/></g>
    <g><path fill="#000000" d="M 195.5,129.5 C 207.896,127.991 211.896,132.991 207.5,144.5C 206.5,145.333 205.5,146.167 204.5,147C 209.737,146.307 212.07,143.141 211.5,137.5C 211.41,135.772 211.077,134.106 210.5,132.5C 220.353,131.529 223.853,135.862 221,145.5C 219.745,146.211 218.579,147.044 217.5,148C 219.163,148.265 220.663,147.765 222,146.5C 224.282,143.727 224.782,140.727 223.5,137.5C 230.127,137.326 232.627,140.659 231,147.5C 224.5,151.716 217.333,153.382 209.5,152.5C 201.428,152.974 193.762,151.474 186.5,148C 180.709,141.543 181.375,135.876 188.5,131C 191.308,130.08 193.475,130.913 195,133.5C 195.922,137.701 195.422,141.701 193.5,145.5C 193.833,145.833 194.167,146.167 194.5,146.5C 199.136,141.039 199.47,135.372 195.5,129.5 Z"/></g>
    <g><path fill="#000000" d="M 130.5,146.5 C 145.228,148.888 148.562,156.388 140.5,169C 136.82,169.682 134.32,168.182 133,164.5C 132.562,161.624 131.562,158.957 130,156.5C 129.253,153.076 129.42,149.743 130.5,146.5 Z"/></g>
    <g><path fill="#000000" d="M 119.5,147.5 C 123.345,147.848 125.345,150.015 125.5,154C 124.989,158.522 123.489,162.689 121,166.5C 116.189,171.016 113.689,169.849 113.5,163C 114.977,157.56 116.977,152.393 119.5,147.5 Z"/></g>
    <g><path fill="#000000" d="M 177.5,152.5 C 180.32,152.248 182.986,152.748 185.5,154C 189.271,158.775 193.438,163.275 198,167.5C 198.483,168.448 198.649,169.448 198.5,170.5C 189.213,170.351 180.546,167.851 172.5,163C 170.254,161.743 168.921,159.91 168.5,157.5C 172.244,157.072 175.244,155.405 177.5,152.5 Z"/></g>
    <g><path fill="#000000" d="M 189.5,154.5 C 189.735,153.903 190.235,153.57 191,153.5C 193.135,154.127 195.302,154.627 197.5,155C 200.837,156.333 203.837,158.166 206.5,160.5C 204.036,162.245 201.37,163.079 198.5,163C 195.604,159.934 192.604,157.101 189.5,154.5 Z"/></g>
    <g><path fill="#000000" d="M 151.5,169.5 C 150.239,165.626 149.572,161.626 149.5,157.5C 153.986,156.994 157.819,158.328 161,161.5C 161.5,167.825 161.666,174.158 161.5,180.5C 159.339,180.174 157.506,179.174 156,177.5C 155.14,174.367 153.64,171.7 151.5,169.5 Z"/></g>
    <g><path fill="#000000" d="M 220.5,158.5 C 225.203,158.437 229.87,158.771 234.5,159.5C 234.439,162.05 233.106,163.55 230.5,164C 220.626,166.802 210.626,168.969 200.5,170.5C 200.286,168.856 200.62,167.356 201.5,166C 207.599,162.585 213.932,160.085 220.5,158.5 Z"/></g>
    <g><path fill="#000000" d="M 238.5,161.5 C 241.394,162.882 243.894,164.882 246,167.5C 250.53,175.899 255.03,184.232 259.5,192.5C 257.173,192.753 255.173,192.086 253.5,190.5C 247.23,182.398 241.563,173.898 236.5,165C 236.978,163.697 237.645,162.531 238.5,161.5 Z"/></g>
    <g><path fill="#000000" d="M 151.5,169.5 C 152.185,174.223 153.852,178.557 156.5,182.5C 151.41,184.588 148.243,182.921 147,177.5C 146.172,173.534 145.672,169.534 145.5,165.5C 146.833,165.5 148.167,165.5 149.5,165.5C 149.229,167.38 149.896,168.713 151.5,169.5 Z"/></g>
    <g><path fill="#000000" d="M 105.5,166.5 C 110.545,165.895 112.879,167.895 112.5,172.5C 104.273,174.89 96.2729,177.89 88.5,181.5C 87.0903,179.051 87.4237,176.884 89.5,175C 95.037,172.235 100.37,169.402 105.5,166.5 Z"/></g>
    <g><path fill="#000000" d="M 219.5,168.5 C 228.058,167.378 235.058,170.045 240.5,176.5C 240,176.833 239.5,177.167 239,177.5C 233.032,175.245 226.865,173.412 220.5,172C 219.663,170.989 219.33,169.822 219.5,168.5 Z"/></g>
    <g><path fill="#000000" d="M 136.5,171.5 C 137.833,171.5 139.167,171.5 140.5,171.5C 140.666,176.502 138.333,179.668 133.5,181C 127.874,182.709 122.207,182.875 116.5,181.5C 112.384,182.074 108.384,183.074 104.5,184.5C 103.447,183.562 102.78,182.395 102.5,181C 106.711,177.144 111.711,174.81 117.5,174C 124,173.309 130.334,172.476 136.5,171.5 Z"/></g>
    <g><path fill="#000000" d="M 185.5,174.5 C 189.514,174.334 193.514,174.501 197.5,175C 200.15,177.082 199.816,178.749 196.5,180C 185.887,183.163 175.221,183.33 164.5,180.5C 166.242,178.183 168.576,176.683 171.5,176C 176.351,175.826 181.018,175.326 185.5,174.5 Z"/></g>
    <g><path fill="#000000" d="M 254.5,177.5 C 255.251,176.427 256.251,176.26 257.5,177C 263.786,179.725 269.286,183.558 274,188.5C 274.5,190.667 273.667,191.5 271.5,191C 265.015,187.328 259.348,182.828 254.5,177.5 Z"/></g>
    <g><path fill="#000000" d="M 228.5,206.5 C 223.305,206.821 218.305,206.487 213.5,205.5C 215.248,203.84 215.748,201.84 215,199.5C 210.7,194.199 206.034,189.199 201,184.5C 200.506,182.866 200.34,181.199 200.5,179.5C 202.927,179.523 205.26,180.023 207.5,181C 213.363,186.561 217.863,193.061 221,200.5C 223.114,203.121 225.614,205.121 228.5,206.5 Z"/></g>
    <g><path fill="#000000" d="M 72.5,205.5 C 69.7131,206.477 66.7131,206.81 63.5,206.5C 67.3121,196.838 72.9788,188.338 80.5,181C 81.7932,180.51 83.1266,180.343 84.5,180.5C 84.6567,181.873 84.49,183.207 84,184.5C 80.7728,190.728 76.4394,196.061 71,200.5C 70.3872,202.495 70.8872,204.162 72.5,205.5 Z"/></g>
    <g><path fill="#000000" d="M 98.5,206.5 C 94.2984,206.817 90.2984,206.483 86.5,205.5C 90.0398,198.765 93.8731,192.098 98,185.5C 99.0113,184.663 100.178,184.33 101.5,184.5C 100.229,190.55 98.2294,196.384 95.5,202C 96.3146,203.643 97.3146,205.143 98.5,206.5 Z"/></g>
    <g><path fill="#000000" d="M 159.5,184.5 C 164.54,185.011 169.54,185.844 174.5,187C 177.646,187.11 178.646,188.443 177.5,191C 171.595,191.559 165.929,190.559 160.5,188C 159.663,186.989 159.33,185.822 159.5,184.5 Z"/></g>
    <g><path fill="#000000" d="M 300.5,205.5 C 295.695,206.487 290.695,206.821 285.5,206.5C 285.785,204.712 285.452,203.045 284.5,201.5C 281.23,199.733 278.397,197.4 276,194.5C 275.146,192.393 275.812,191.059 278,190.5C 281.431,192.261 284.597,194.428 287.5,197C 289.543,198.708 291.21,200.708 292.5,203C 295.022,204.341 297.689,205.174 300.5,205.5 Z"/></g>
    <g><path fill="#000000" d="M 183.5,205.5 C 180.5,206.833 177.5,206.833 174.5,205.5C 176.006,201.765 177.006,197.765 177.5,193.5C 179.325,192.429 180.492,193.096 181,195.5C 181.333,198.5 181.667,201.5 182,204.5C 182.383,205.056 182.883,205.389 183.5,205.5 Z"/></g>
    <g><path fill="#000000" d="M 280.5,205.5 C 276.03,206.486 271.363,206.819 266.5,206.5C 263.765,202.419 261.431,198.085 259.5,193.5C 260.873,193.343 262.207,193.51 263.5,194C 267.876,199.847 273.543,203.68 280.5,205.5 Z"/></g>
    <text x="23" y="440" font-size="65" font-family="Courier New" font-weight="600"
          fill="#FFFFFF">morontt.info</text>
</svg>
