<?xml version="1.0" encoding="utf-8"?>
<svg xmlns="http://www.w3.org/2000/svg" viewBox="0 0 351.98 383.52">
    <path fill="#6363ff"
          d="M175,0C126.67.2,78.69,6.34,53.72,17.85,53.72,17.85,0,42.3,0,125.6c0,99.15-.07,223.67,89,247.75,34.11,9.17,63.45,11.14,87,9.78,42.8-2.42,64-15.53,64-15.53L238.56,336a188.57,188.57,0,0,1-62.09,8.66c-34-1.2-69.89-3.75-75.47-46.25a89.87,89.87,0,0,1-.75-11.94c72.11,17.91,133.6,7.8,150.53,5.75,47.27-5.74,88.41-35.38,93.66-62.47C352.66,187,352,125.6,352,125.6c0-83.3-53.63-107.75-53.63-107.75C272,5.55,223.33-.19,175,0ZM123.28,63.54c16.56.44,32.92,7.85,43,23.5L176,103.6,185.75,87c20.24-31.48,65.6-29.51,87.19-5.16,19.9,23.17,15.47,38.12,15.47,141.62v0H249.25V133.47c0-42.16-53.75-43.79-53.75,5.85V191.5H156.59V139.32c0-49.64-53.71-48-53.71-5.88V223.5H63.63c0-103.58-4.36-118.63,15.46-141.62C90,69.62,106.72,63.09,123.28,63.54Z"/>
</svg>
